<svg xmlns="http://www.w3.org/2000/svg" viewBox="0 0 1400 1450" width="1400" height="1450" font-family="Segoe UI, Arial, sans-serif">
  <defs>
    <marker id="arrow" markerWidth="10" markerHeight="7" refX="9" refY="3.5" orient="auto"><polygon points="0 0, 10 3.5, 0 7" fill="#aaa"/></marker>
    <marker id="arrow-cyan" markerWidth="10" markerHeight="7" refX="9" refY="3.5" orient="auto"><polygon points="0 0, 10 3.5, 0 7" fill="#4affff"/></marker>
    <marker id="arrow-blue" markerWidth="10" markerHeight="7" refX="9" refY="3.5" orient="auto"><polygon points="0 0, 10 3.5, 0 7" fill="#4a9eff"/></marker>
    <marker id="arrow-green" markerWidth="10" markerHeight="7" refX="9" refY="3.5" orient="auto"><polygon points="0 0, 10 3.5, 0 7" fill="#4aff88"/></marker>
    <marker id="arrow-orange" markerWidth="10" markerHeight="7" refX="9" refY="3.5" orient="auto"><polygon points="0 0, 10 3.5, 0 7" fill="#ffaa44"/></marker>
    <marker id="arrow-red" markerWidth="10" markerHeight="7" refX="9" refY="3.5" orient="auto"><polygon points="0 0, 10 3.5, 0 7" fill="#ff5555"/></marker>
    <marker id="arrow-yellow" markerWidth="10" markerHeight="7" refX="9" refY="3.5" orient="auto"><polygon points="0 0, 10 3.5, 0 7" fill="#ffcc44"/></marker>
    <marker id="arrow-purple" markerWidth="10" markerHeight="7" refX="9" refY="3.5" orient="auto"><polygon points="0 0, 10 3.5, 0 7" fill="#cc66ff"/></marker>
    <marker id="arrow-lime" markerWidth="10" markerHeight="7" refX="9" refY="3.5" orient="auto"><polygon points="0 0, 10 3.5, 0 7" fill="#ccff44"/></marker>
  </defs>

  <!-- Background -->
  <rect width="1400" height="1450" fill="#1a1a1a"/>

  <!-- Title -->
  <text x="700" y="35" text-anchor="middle" font-size="20" font-weight="bold" fill="#ffffff">DIY Robot Challenge — Full System Architecture</text>
  <text x="700" y="55" text-anchor="middle" font-size="12" fill="#888">Jetson Nano (ROS2 Humble) + STM32 — All Onboard, No Remote Stack</text>

  <!-- ═══ PHYSICAL HARDWARE ═══ -->
  <rect x="20" y="68" width="1360" height="130" rx="8" fill="#2a2a2a" stroke="#888" stroke-width="1.5"/>
  <text x="30" y="86" font-size="13" font-weight="bold" fill="#aaa">Physical Hardware</text>

  <rect x="35" y="93" width="148" height="90" rx="6" fill="#1a3a3a" stroke="#4affff" stroke-width="1.5"/>
  <text x="109" y="115" text-anchor="middle" font-size="12" font-weight="bold" fill="#4affff">Hesai QT64</text>
  <text x="109" y="130" text-anchor="middle" font-size="10" fill="#aaa">3D LiDAR (64ch)</text>
  <text x="109" y="144" text-anchor="middle" font-size="10" fill="#aaa">±52° Vertical FOV</text>
  <text x="109" y="158" text-anchor="middle" font-size="10" fill="#666">Ethernet</text>

  <rect x="193" y="93" width="148" height="90" rx="6" fill="#1a2a3a" stroke="#4a9eff" stroke-width="1.5"/>
  <text x="267" y="115" text-anchor="middle" font-size="12" font-weight="bold" fill="#4a9eff">RealSense D435i</text>
  <text x="267" y="130" text-anchor="middle" font-size="10" fill="#aaa">RGB-D Camera</text>
  <text x="267" y="144" text-anchor="middle" font-size="10" fill="#aaa">AprilTags + Depth</text>
  <text x="267" y="158" text-anchor="middle" font-size="10" fill="#666">USB3</text>

  <rect x="351" y="93" width="135" height="90" rx="6" fill="#2a1a3a" stroke="#aa88ff" stroke-width="1.5"/>
  <text x="418" y="115" text-anchor="middle" font-size="12" font-weight="bold" fill="#aa88ff">Dedicated IMU</text>
  <text x="418" y="130" text-anchor="middle" font-size="10" fill="#aaa">6-DOF IMU</text>
  <text x="418" y="144" text-anchor="middle" font-size="10" fill="#aaa">Primary for LIO</text>
  <text x="418" y="158" text-anchor="middle" font-size="10" fill="#666">UART / I2C</text>

  <rect x="496" y="93" width="148" height="90" rx="6" fill="#2a3a1a" stroke="#88ff44" stroke-width="1.5"/>
  <text x="570" y="109" text-anchor="middle" font-size="12" font-weight="bold" fill="#88ff44">RTK GNSS</text>
  <text x="570" y="124" text-anchor="middle" font-size="10" fill="#aaa">Receiver + Antenna</text>
  <text x="570" y="138" text-anchor="middle" font-size="10" fill="#aaa">Correction Service</text>
  <text x="570" y="152" text-anchor="middle" font-size="10" fill="#aaa">~2cm accuracy</text>
  <text x="570" y="166" text-anchor="middle" font-size="10" fill="#666">USB / UART</text>

  <rect x="654" y="93" width="148" height="90" rx="6" fill="#3a1a1a" stroke="#ff6644" stroke-width="1.5"/>
  <text x="728" y="115" text-anchor="middle" font-size="12" font-weight="bold" fill="#ff6644">FWD Motors</text>
  <text x="728" y="130" text-anchor="middle" font-size="10" fill="#aaa">Motor Controllers</text>
  <text x="728" y="144" text-anchor="middle" font-size="10" fill="#aaa">Drive + Steering</text>
  <text x="728" y="158" text-anchor="middle" font-size="10" fill="#666">P-CAN</text>

  <rect x="812" y="93" width="148" height="90" rx="6" fill="#3a1a1a" stroke="#ff4444" stroke-width="1.5"/>
  <text x="886" y="109" text-anchor="middle" font-size="12" font-weight="bold" fill="#ff4444">E-Stop (Wired)</text>
  <text x="886" y="124" text-anchor="middle" font-size="10" fill="#aaa">Course-provided</text>
  <text x="886" y="138" text-anchor="middle" font-size="10" fill="#aaa">Standard interface</text>
  <text x="886" y="152" text-anchor="middle" font-size="10" fill="#aaa">Rule 1.2.2</text>
  <text x="886" y="166" text-anchor="middle" font-size="10" fill="#666">Wired</text>

  <rect x="970" y="93" width="148" height="90" rx="6" fill="#3a1a1a" stroke="#ff4444" stroke-width="1.5"/>
  <text x="1044" y="109" text-anchor="middle" font-size="12" font-weight="bold" fill="#ff4444">E-Stop (Wireless)</text>
  <text x="1044" y="124" text-anchor="middle" font-size="10" fill="#aaa">Team-provided</text>
  <text x="1044" y="138" text-anchor="middle" font-size="10" fill="#aaa">300ft range</text>
  <text x="1044" y="152" text-anchor="middle" font-size="10" fill="#aaa">Fail-safe &lt;1s</text>
  <text x="1044" y="166" text-anchor="middle" font-size="10" fill="#666">RF Wireless</text>

  <!-- Joystick Controller -->
  <rect x="1128" y="93" width="238" height="90" rx="6" fill="#1a2a1a" stroke="#ccff44" stroke-width="1.5" stroke-dasharray="6,3"/>
  <text x="1247" y="109" text-anchor="middle" font-size="12" font-weight="bold" fill="#ccff44">Joystick Controller</text>
  <text x="1247" y="124" text-anchor="middle" font-size="10" fill="#aaa">Pre-competition only</text>
  <text x="1247" y="138" text-anchor="middle" font-size="10" fill="#aaa">Manual drive for mapping</text>
  <text x="1247" y="152" text-anchor="middle" font-size="10" fill="#aaa">NOT used during race</text>
  <text x="1247" y="166" text-anchor="middle" font-size="10" fill="#666">USB (joy_node)</text>

  <!-- ═══ STM32 ═══ -->
  <rect x="620" y="218" width="760" height="130" rx="8" fill="#0d1f35" stroke="#4a9eff" stroke-width="2"/>
  <text x="630" y="237" font-size="13" font-weight="bold" fill="#4a9eff">STM32 — Real-Time Layer</text>

  <rect x="635" y="244" width="210" height="88" rx="6" fill="#0a1525" stroke="#4a9eff" stroke-width="1.5"/>
  <text x="740" y="264" text-anchor="middle" font-size="12" font-weight="bold" fill="#4a9eff">CAN Bus Driver</text>
  <text x="740" y="279" text-anchor="middle" font-size="10" fill="#aaa">/cmd_vel → CAN frames</text>
  <text x="740" y="293" text-anchor="middle" font-size="10" fill="#aaa">Motor velocity cmds</text>
  <text x="740" y="307" text-anchor="middle" font-size="10" fill="#666">P-CAN protocol</text>
  <text x="740" y="321" text-anchor="middle" font-size="9" fill="#555">joystick OR autonomous</text>

  <rect x="860" y="244" width="210" height="88" rx="6" fill="#2a0a0a" stroke="#ff4444" stroke-width="1.5"/>
  <text x="965" y="264" text-anchor="middle" font-size="12" font-weight="bold" fill="#ff4444">E-Stop Handler</text>
  <text x="965" y="279" text-anchor="middle" font-size="10" fill="#aaa">Wired + wireless input</text>
  <text x="965" y="293" text-anchor="middle" font-size="10" fill="#aaa">Override cmd_vel = 0</text>
  <text x="965" y="307" text-anchor="middle" font-size="10" fill="#666">Fail-safe &lt;1s stop</text>

  <rect x="1085" y="244" width="280" height="88" rx="6" fill="#0a1525" stroke="#4a9eff" stroke-width="1.5"/>
  <text x="1225" y="264" text-anchor="middle" font-size="12" font-weight="bold" fill="#4a9eff">micro-ROS Agent Bridge</text>
  <text x="1225" y="279" text-anchor="middle" font-size="10" fill="#aaa">UART ↔ ROS2 topics</text>
  <text x="1225" y="293" text-anchor="middle" font-size="10" fill="#aaa">relays /cmd_vel to CAN driver</text>
  <text x="1225" y="307" text-anchor="middle" font-size="10" fill="#666">ROS2 ↔ STM32</text>

  <!-- ═══ JETSON NANO outer box ═══ -->
  <rect x="20" y="360" width="1360" height="640" rx="8" fill="#0d200d" stroke="#4aff88" stroke-width="2"/>
  <text x="30" y="379" font-size="14" font-weight="bold" fill="#4aff88">Jetson Nano — ROS2 Humble</text>

  <!-- DRIVER LAYER -->
  <rect x="35" y="386" width="1330" height="110" rx="6" fill="#0a180a" stroke="#3a7a3a" stroke-width="1.5"/>
  <text x="45" y="403" font-size="12" font-weight="bold" fill="#3aaa3a">Driver Layer</text>

  <rect x="48" y="408" width="173" height="78" rx="5" fill="#071507" stroke="#3a7a3a" stroke-width="1"/>
  <text x="135" y="426" text-anchor="middle" font-size="11" font-weight="bold" fill="#4affff">hesai_ros_driver</text>
  <text x="135" y="441" text-anchor="middle" font-size="10" fill="#aaa">→ /hesai/points</text>
  <text x="135" y="455" text-anchor="middle" font-size="10" fill="#aaa">PointCloud2</text>
  <text x="135" y="469" text-anchor="middle" font-size="10" fill="#666">~20Hz scan rate</text>

  <rect x="232" y="408" width="173" height="78" rx="5" fill="#071507" stroke="#3a7a3a" stroke-width="1"/>
  <text x="318" y="426" text-anchor="middle" font-size="11" font-weight="bold" fill="#4a9eff">realsense2_ros</text>
  <text x="318" y="441" text-anchor="middle" font-size="10" fill="#aaa">→ /camera/color</text>
  <text x="318" y="455" text-anchor="middle" font-size="10" fill="#aaa">→ /camera/depth</text>
  <text x="318" y="469" text-anchor="middle" font-size="10" fill="#666">1080p / 30fps</text>

  <rect x="416" y="408" width="173" height="78" rx="5" fill="#071507" stroke="#3a7a3a" stroke-width="1"/>
  <text x="502" y="426" text-anchor="middle" font-size="11" font-weight="bold" fill="#aa88ff">IMU driver</text>
  <text x="502" y="441" text-anchor="middle" font-size="10" fill="#aaa">→ /imu/data</text>
  <text x="502" y="455" text-anchor="middle" font-size="10" fill="#aaa">calibrated output</text>
  <text x="502" y="469" text-anchor="middle" font-size="10" fill="#666">~400Hz</text>

  <rect x="600" y="408" width="173" height="78" rx="5" fill="#071507" stroke="#3a7a3a" stroke-width="1"/>
  <text x="686" y="426" text-anchor="middle" font-size="11" font-weight="bold" fill="#88ff44">ublox / nmea driver</text>
  <text x="686" y="441" text-anchor="middle" font-size="10" fill="#aaa">→ /gps/fix</text>
  <text x="686" y="455" text-anchor="middle" font-size="10" fill="#aaa">RTK corrected</text>
  <text x="686" y="469" text-anchor="middle" font-size="10" fill="#666">5–20Hz</text>

  <rect x="784" y="408" width="185" height="78" rx="5" fill="#071507" stroke="#3a7a3a" stroke-width="1"/>
  <text x="876" y="426" text-anchor="middle" font-size="11" font-weight="bold" fill="#4a9eff">micro-ROS Agent</text>
  <text x="876" y="441" text-anchor="middle" font-size="10" fill="#aaa">→ bridges STM32</text>
  <text x="876" y="455" text-anchor="middle" font-size="10" fill="#aaa">relays /cmd_vel</text>
  <text x="876" y="469" text-anchor="middle" font-size="10" fill="#666">UART bridge</text>

  <!-- joy_node -->
  <rect x="980" y="408" width="370" height="78" rx="5" fill="#0f1a07" stroke="#ccff44" stroke-width="1.5" stroke-dasharray="5,3"/>
  <text x="1165" y="426" text-anchor="middle" font-size="11" font-weight="bold" fill="#ccff44">joy_node + teleop_twist_joy</text>
  <text x="1165" y="441" text-anchor="middle" font-size="10" fill="#aaa">/joy → /cmd_vel (manual override)</text>
  <text x="1165" y="455" text-anchor="middle" font-size="10" fill="#aaa">mode_switch: JOYSTICK / AUTONOMOUS</text>
  <text x="1165" y="469" text-anchor="middle" font-size="10" fill="#666">pre-competition mapping only</text>

  <!-- LOCALIZATION LAYER -->
  <rect x="35" y="506" width="650" height="220" rx="6" fill="#0a0a20" stroke="#3a3aaa" stroke-width="1.5"/>
  <text x="45" y="524" font-size="12" font-weight="bold" fill="#6a6aff">Localization Layer</text>

  <rect x="48" y="530" width="185" height="185" rx="5" fill="#07071a" stroke="#3a3aaa" stroke-width="1"/>
  <text x="140" y="550" text-anchor="middle" font-size="11" font-weight="bold" fill="#6a6aff">FAST-LIO2</text>
  <text x="140" y="565" text-anchor="middle" font-size="10" fill="#aaa">QT64 + IMU fusion</text>
  <text x="140" y="579" text-anchor="middle" font-size="10" fill="#aaa">→ /lidar_odometry ~50Hz</text>
  <text x="140" y="593" text-anchor="middle" font-size="10" fill="#888">Scan-to-map matching</text>
  <text x="140" y="607" text-anchor="middle" font-size="10" fill="#888">No loop closure</text>
  <text x="140" y="621" text-anchor="middle" font-size="10" fill="#888">0.1–0.3% drift</text>
  <text x="140" y="635" text-anchor="middle" font-size="10" fill="#888">Robust in tunnel</text>
  <text x="140" y="649" text-anchor="middle" font-size="10" fill="#888">(wall features)</text>
  <text x="140" y="668" text-anchor="middle" font-size="9" fill="#444">Initialized with prior map</text>
  <text x="140" y="682" text-anchor="middle" font-size="9" fill="#444">Scan Context++ if RTK drops</text>
  <text x="140" y="696" text-anchor="middle" font-size="9" fill="#444">instant re-localize after E-Stop</text>

  <rect x="245" y="530" width="185" height="100" rx="5" fill="#07071a" stroke="#3a3aaa" stroke-width="1"/>
  <text x="337" y="550" text-anchor="middle" font-size="11" font-weight="bold" fill="#6a6aff">EKF1 — Local</text>
  <text x="337" y="565" text-anchor="middle" font-size="10" fill="#aaa">robot_localization</text>
  <text x="337" y="579" text-anchor="middle" font-size="10" fill="#aaa">→ /odometry/filtered</text>
  <text x="337" y="593" text-anchor="middle" font-size="10" fill="#aaa">FAST-LIO2 + IMU</text>
  <text x="337" y="607" text-anchor="middle" font-size="10" fill="#888">High-rate local frame</text>
  <text x="337" y="621" text-anchor="middle" font-size="10" fill="#888">Feeds Nav2 controller</text>

  <rect x="245" y="645" width="185" height="75" rx="5" fill="#07071a" stroke="#3a3aaa" stroke-width="1"/>
  <text x="337" y="663" text-anchor="middle" font-size="11" font-weight="bold" fill="#88ff44">EKF2 — Global</text>
  <text x="337" y="678" text-anchor="middle" font-size="10" fill="#aaa">navsat_transform</text>
  <text x="337" y="692" text-anchor="middle" font-size="10" fill="#aaa">→ /odometry/global</text>
  <text x="337" y="706" text-anchor="middle" font-size="10" fill="#888">RTK GPS fused</text>

  <rect x="445" y="530" width="225" height="100" rx="5" fill="#07071a" stroke="#3a3aaa" stroke-width="1"/>
  <text x="557" y="550" text-anchor="middle" font-size="11" font-weight="bold" fill="#ffaa44">apriltag_ros</text>
  <text x="557" y="565" text-anchor="middle" font-size="10" fill="#aaa">D435i RGB input</text>
  <text x="557" y="579" text-anchor="middle" font-size="10" fill="#aaa">→ discrete pose corrections</text>
  <text x="557" y="593" text-anchor="middle" font-size="10" fill="#aaa">injected into EKF1</text>
  <text x="557" y="607" text-anchor="middle" font-size="10" fill="#888">At obstacle entries</text>
  <text x="557" y="621" text-anchor="middle" font-size="10" fill="#888">&lt;2cm reset accuracy</text>

  <rect x="445" y="645" width="225" height="75" rx="5" fill="#07071a" stroke="#ffaa44" stroke-width="1"/>
  <text x="557" y="663" text-anchor="middle" font-size="11" font-weight="bold" fill="#ffaa44">Calibration (one-time)</text>
  <text x="557" y="678" text-anchor="middle" font-size="10" fill="#aaa">imu_utils → noise params</text>
  <text x="557" y="692" text-anchor="middle" font-size="10" fill="#aaa">lidar_imu_calib → extrinsic</text>
  <text x="557" y="706" text-anchor="middle" font-size="10" fill="#aaa">cam_lidar_calib → cam↔LiDAR</text>

  <!-- PERCEPTION LAYER -->
  <rect x="700" y="506" width="680" height="220" rx="6" fill="#200a00" stroke="#aa5a1a" stroke-width="1.5"/>
  <text x="710" y="524" font-size="12" font-weight="bold" fill="#ff8844">Perception Layer</text>

  <rect x="714" y="530" width="295" height="185" rx="5" fill="#150600" stroke="#aa5a1a" stroke-width="1"/>
  <text x="861" y="550" text-anchor="middle" font-size="11" font-weight="bold" fill="#ff8844">PCL Obstacle Classifier</text>
  <text x="861" y="565" text-anchor="middle" font-size="10" fill="#aaa">Input: /hesai/points</text>
  <text x="861" y="580" text-anchor="middle" font-size="10" fill="#888">1. Ground plane removal (RANSAC)</text>
  <text x="861" y="594" text-anchor="middle" font-size="10" fill="#888">2. Euclidean clustering</text>
  <text x="861" y="609" text-anchor="middle" font-size="10" fill="#ff8844">3. Map diff: new vs prior map</text>
  <text x="861" y="624" text-anchor="middle" font-size="10" fill="#888">4. Per-cluster classify:</text>
  <text x="861" y="638" text-anchor="middle" font-size="10" fill="#ff8844">   → CHIMES (sparse/thin vertical)</text>
  <text x="861" y="652" text-anchor="middle" font-size="10" fill="#ffaa44">   → MOVABLE (isolated dense)</text>
  <text x="861" y="666" text-anchor="middle" font-size="10" fill="#aaaaff">   → WALL (solid floor-to-ceil)</text>
  <text x="861" y="680" text-anchor="middle" font-size="10" fill="#44ffaa">   → PASSAGE/TUNNEL (opening)</text>
  <text x="861" y="697" text-anchor="middle" font-size="10" fill="#aaa">→ /obstacle_class + D435i assist</text>

  <rect x="1022" y="530" width="343" height="185" rx="5" fill="#150600" stroke="#aa5a1a" stroke-width="1"/>
  <text x="1193" y="550" text-anchor="middle" font-size="11" font-weight="bold" fill="#ff8844">Costmap Manager</text>
  <text x="1193" y="566" text-anchor="middle" font-size="10" fill="#aaa">Nav2 Costmap2D (3D voxel)</text>
  <text x="1193" y="582" text-anchor="middle" font-size="10" fill="#888">Layers:</text>
  <text x="1193" y="596" text-anchor="middle" font-size="10" fill="#888">• Static map (prior, obstacle-free)</text>
  <text x="1193" y="610" text-anchor="middle" font-size="10" fill="#888">• Voxel layer (live QT64)</text>
  <text x="1193" y="624" text-anchor="middle" font-size="10" fill="#888">• Temporal decay (chimes fix)</text>
  <text x="1193" y="638" text-anchor="middle" font-size="10" fill="#888">• Inflation layer</text>
  <text x="1193" y="654" text-anchor="middle" font-size="10" fill="#ff8844">Behavior switch can:</text>
  <text x="1193" y="668" text-anchor="middle" font-size="10" fill="#888">disable obstacle layer</text>
  <text x="1193" y="682" text-anchor="middle" font-size="10" fill="#888">(push-through / blind mode)</text>
  <text x="1193" y="696" text-anchor="middle" font-size="10" fill="#888">re-enable after zone clear</text>

  <!-- NAVIGATION LAYER -->
  <rect x="35" y="740" width="650" height="245" rx="6" fill="#1a0a2a" stroke="#8a3aaa" stroke-width="1.5"/>
  <text x="45" y="758" font-size="12" font-weight="bold" fill="#cc66ff">Navigation Layer</text>

  <rect x="48" y="765" width="295" height="205" rx="5" fill="#100718" stroke="#8a3aaa" stroke-width="1"/>
  <text x="195" y="783" text-anchor="middle" font-size="11" font-weight="bold" fill="#cc66ff">map_server</text>
  <text x="195" y="798" text-anchor="middle" font-size="10" fill="#aaa">Prior static map (obstacle-free)</text>
  <text x="195" y="813" text-anchor="middle" font-size="10" fill="#aaa">+ centerline waypoints</text>
  <text x="195" y="828" text-anchor="middle" font-size="10" fill="#aaa">+ zone_config.yaml</text>
  <text x="195" y="845" text-anchor="middle" font-size="9" fill="#888">zone_config contains:</text>
  <text x="195" y="859" text-anchor="middle" font-size="9" fill="#888">• zone entry/exit waypoints</text>
  <text x="195" y="873" text-anchor="middle" font-size="9" fill="#888">• default behavior per zone</text>
  <text x="195" y="887" text-anchor="middle" font-size="9" fill="#888">• day-of obstacle type (from diff)</text>
  <text x="195" y="903" text-anchor="middle" font-size="9" fill="#555">generated offline, uploaded before heat</text>
  <text x="195" y="917" text-anchor="middle" font-size="9" fill="#555">lab_test.yaml / competition.yaml</text>
  <text x="195" y="931" text-anchor="middle" font-size="9" fill="#555">prior map → instant re-localize</text>
  <text x="195" y="945" text-anchor="middle" font-size="9" fill="#555">after E-Stop recovery</text>
  <text x="195" y="960" text-anchor="middle" font-size="9" fill="#555">global path = centerline from prior</text>

  <rect x="356" y="765" width="314" height="205" rx="5" fill="#100718" stroke="#8a3aaa" stroke-width="1"/>
  <text x="513" y="783" text-anchor="middle" font-size="11" font-weight="bold" fill="#cc66ff">Nav2</text>
  <text x="513" y="798" text-anchor="middle" font-size="10" fill="#aaa">Global Planner: Smac Hybrid-A*</text>
  <text x="513" y="812" text-anchor="middle" font-size="10" fill="#888">(non-holonomic FWD aware)</text>
  <text x="513" y="828" text-anchor="middle" font-size="10" fill="#aaa">Local Controller: MPPI</text>
  <text x="513" y="842" text-anchor="middle" font-size="10" fill="#888">(dynamic obstacle response)</text>
  <text x="513" y="858" text-anchor="middle" font-size="10" fill="#aaa">Inputs:</text>
  <text x="513" y="872" text-anchor="middle" font-size="10" fill="#888">/odometry/filtered (local)</text>
  <text x="513" y="886" text-anchor="middle" font-size="10" fill="#888">/odometry/global (RTK)</text>
  <text x="513" y="900" text-anchor="middle" font-size="10" fill="#888">costmap layers</text>
  <text x="513" y="914" text-anchor="middle" font-size="10" fill="#888">pre-computed waypoints</text>
  <text x="513" y="930" text-anchor="middle" font-size="10" fill="#aaa">Output: /cmd_vel</text>
  <text x="513" y="946" text-anchor="middle" font-size="9" fill="#555">global path = centerline from prior</text>
  <text x="513" y="960" text-anchor="middle" font-size="9" fill="#555">local planner handles obstacles</text>

  <!-- MISSION LAYER -->
  <rect x="700" y="740" width="680" height="245" rx="6" fill="#20180a" stroke="#aa8a1a" stroke-width="1.5"/>
  <text x="710" y="758" font-size="12" font-weight="bold" fill="#ffcc44">Mission Layer</text>

  <rect x="713" y="765" width="155" height="85" rx="5" fill="#150f00" stroke="#aa8a1a" stroke-width="1"/>
  <text x="790" y="783" text-anchor="middle" font-size="11" font-weight="bold" fill="#ffcc44">Visual Start</text>
  <text x="790" y="798" text-anchor="middle" font-size="10" fill="#aaa">Detector</text>
  <text x="790" y="813" text-anchor="middle" font-size="10" fill="#aaa">D435i RGB</text>
  <text x="790" y="828" text-anchor="middle" font-size="10" fill="#888">Rule 2.5.1</text>
  <text x="790" y="843" text-anchor="middle" font-size="10" fill="#888">visual start signal</text>

  <rect x="879" y="765" width="240" height="165" rx="5" fill="#150f00" stroke="#ffcc44" stroke-width="1.5"/>
  <text x="999" y="783" text-anchor="middle" font-size="11" font-weight="bold" fill="#ffcc44">Mission State Machine</text>
  <text x="999" y="800" text-anchor="middle" font-size="10" fill="#4aff88">WAIT_FOR_START_SIGNAL</text>
  <text x="999" y="814" text-anchor="middle" font-size="10" fill="#888">↓</text>
  <text x="999" y="828" text-anchor="middle" font-size="10" fill="#4a9eff">NAVIGATE_TO_WAYPOINT</text>
  <text x="999" y="842" text-anchor="middle" font-size="10" fill="#888">↓</text>
  <text x="999" y="856" text-anchor="middle" font-size="10" fill="#ffaa44">OBSTACLE_ZONE_ENTRY</text>
  <text x="999" y="870" text-anchor="middle" font-size="10" fill="#888">↓ (lookup zone_config.yaml)</text>
  <text x="999" y="884" text-anchor="middle" font-size="10" fill="#ff8844">BEHAVIOR_SWITCH</text>
  <text x="999" y="898" text-anchor="middle" font-size="10" fill="#888">↓</text>
  <text x="999" y="912" text-anchor="middle" font-size="10" fill="#cc66ff">LAP_COMPLETE (×2) → STOP</text>

  <rect x="1131" y="765" width="234" height="210" rx="5" fill="#150f00" stroke="#aa8a1a" stroke-width="1"/>
  <text x="1248" y="783" text-anchor="middle" font-size="11" font-weight="bold" fill="#ffcc44">Behavior Mode Switcher</text>
  <rect x="1143" y="793" width="210" height="36" rx="4" fill="#1a3a1a" stroke="#4aff88" stroke-width="1"/>
  <text x="1248" y="807" text-anchor="middle" font-size="10" font-weight="bold" fill="#4aff88">PUSH_THROUGH</text>
  <text x="1248" y="821" text-anchor="middle" font-size="9" fill="#888">tunnel, narrow passage, chimes</text>
  <rect x="1143" y="836" width="210" height="36" rx="4" fill="#3a2a00" stroke="#ffaa44" stroke-width="1"/>
  <text x="1248" y="850" text-anchor="middle" font-size="10" font-weight="bold" fill="#ffaa44">NAVIGATE_AROUND</text>
  <text x="1248" y="864" text-anchor="middle" font-size="9" fill="#888">movable / soft obstacle</text>
  <rect x="1143" y="879" width="210" height="36" rx="4" fill="#3a0000" stroke="#ff6644" stroke-width="1"/>
  <text x="1248" y="893" text-anchor="middle" font-size="10" font-weight="bold" fill="#ff6644">BLIND_DRIVE_MODE</text>
  <text x="1248" y="907" text-anchor="middle" font-size="9" fill="#888">chimes fallback, dead-reckoning</text>
  <rect x="1143" y="922" width="210" height="36" rx="4" fill="#001a3a" stroke="#4a9eff" stroke-width="1"/>
  <text x="1248" y="936" text-anchor="middle" font-size="10" font-weight="bold" fill="#4a9eff">NORMAL_NAV</text>
  <text x="1248" y="950" text-anchor="middle" font-size="9" fill="#888">standard Nav2 + full costmap</text>

  <!-- ═══ OFFLINE PRE-COMPETITION PIPELINE ═══ -->
  <rect x="20" y="1015" width="1360" height="380" rx="8" fill="#0f0f0a" stroke="#ccff44" stroke-width="2" stroke-dasharray="8,4"/>
  <text x="30" y="1034" font-size="14" font-weight="bold" fill="#ccff44">Offline / Pre-Competition Pipeline</text>
  <text x="30" y="1050" font-size="11" fill="#888">Executed BEFORE competition heats — not running during race</text>

  <!-- Phase 1 -->
  <rect x="35" y="1058" width="1330" height="140" rx="6" fill="#13130a" stroke="#888844" stroke-width="1"/>
  <text x="45" y="1076" font-size="11" font-weight="bold" fill="#aaaa44">Phase 1 — Prior Map Recording  (weeks before, clean track, no obstacles)</text>

  <rect x="50" y="1083" width="175" height="105" rx="5" fill="#1a1a00" stroke="#ccff44" stroke-width="1.5"/>
  <text x="137" y="1101" text-anchor="middle" font-size="11" font-weight="bold" fill="#ccff44">Joystick Drive</text>
  <text x="137" y="1116" text-anchor="middle" font-size="10" fill="#aaa">2 slow laps @ 0.3m/s</text>
  <text x="137" y="1130" text-anchor="middle" font-size="10" fill="#aaa">steady, consistent speed</text>
  <text x="137" y="1144" text-anchor="middle" font-size="10" fill="#888">joy_node active</text>
  <text x="137" y="1158" text-anchor="middle" font-size="10" fill="#888">record all sensors</text>
  <line x1="225" y1="1135" x2="255" y2="1135" stroke="#ccff44" stroke-width="2" marker-end="url(#arrow-lime)"/>

  <rect x="255" y="1083" width="185" height="105" rx="5" fill="#1a1a00" stroke="#888844" stroke-width="1"/>
  <text x="347" y="1101" text-anchor="middle" font-size="11" font-weight="bold" fill="#aaaa44">Rosbag</text>
  <text x="347" y="1116" text-anchor="middle" font-size="10" fill="#aaa">/hesai/points</text>
  <text x="347" y="1130" text-anchor="middle" font-size="10" fill="#aaa">/imu/data</text>
  <text x="347" y="1144" text-anchor="middle" font-size="10" fill="#aaa">/gps/fix</text>
  <text x="347" y="1158" text-anchor="middle" font-size="10" fill="#aaa">/camera/color</text>
  <line x1="440" y1="1135" x2="470" y2="1135" stroke="#ccff44" stroke-width="2" marker-end="url(#arrow-lime)"/>

  <rect x="470" y="1083" width="200" height="105" rx="5" fill="#1a1a00" stroke="#888844" stroke-width="1"/>
  <text x="570" y="1101" text-anchor="middle" font-size="11" font-weight="bold" fill="#aaaa44">LIO-SAM Offline</text>
  <text x="570" y="1116" text-anchor="middle" font-size="10" fill="#aaa">Process rosbag</text>
  <text x="570" y="1130" text-anchor="middle" font-size="10" fill="#aaa">2-lap loop closure fires</text>
  <text x="570" y="1144" text-anchor="middle" font-size="10" fill="#aaa">→ global pointcloud</text>
  <text x="570" y="1158" text-anchor="middle" font-size="10" fill="#888">→ trajectory PCD</text>
  <line x1="670" y1="1135" x2="700" y2="1135" stroke="#ccff44" stroke-width="2" marker-end="url(#arrow-lime)"/>

  <rect x="700" y="1083" width="210" height="105" rx="5" fill="#1a1a00" stroke="#888844" stroke-width="1"/>
  <text x="805" y="1101" text-anchor="middle" font-size="11" font-weight="bold" fill="#aaaa44">Centerline Extractor</text>
  <text x="805" y="1116" text-anchor="middle" font-size="10" fill="#aaa">octomap → 2D occupancy</text>
  <text x="805" y="1130" text-anchor="middle" font-size="10" fill="#aaa">voronoi skeletonization</text>
  <text x="805" y="1144" text-anchor="middle" font-size="10" fill="#aaa">→ waypoints.yaml</text>
  <text x="805" y="1158" text-anchor="middle" font-size="10" fill="#888">+ annotate zone boundaries</text>
  <line x1="910" y1="1135" x2="940" y2="1135" stroke="#ccff44" stroke-width="2" marker-end="url(#arrow-lime)"/>

  <rect x="940" y="1083" width="405" height="105" rx="5" fill="#1a1a00" stroke="#ccff44" stroke-width="1.5"/>
  <text x="1142" y="1101" text-anchor="middle" font-size="11" font-weight="bold" fill="#ccff44">Prior Map Artifacts (saved to robot)</text>
  <text x="1142" y="1116" text-anchor="middle" font-size="10" fill="#aaa">prior_map.pcd   static_map.pgm/.yaml</text>
  <text x="1142" y="1130" text-anchor="middle" font-size="10" fill="#aaa">waypoints.yaml (centerline)</text>
  <text x="1142" y="1144" text-anchor="middle" font-size="10" fill="#aaa">zone_template.yaml (boundaries)</text>
  <text x="1142" y="1158" text-anchor="middle" font-size="10" fill="#888">↑ feeds map_server + FAST-LIO2 init</text>

  <!-- Phase 2 -->
  <rect x="35" y="1210" width="1330" height="170" rx="6" fill="#130a0a" stroke="#ff8844" stroke-width="1"/>
  <text x="45" y="1228" font-size="11" font-weight="bold" fill="#ff8844">Phase 2 — Day-Before Obstacle Classification  (obstacles placed, before competition)</text>

  <rect x="50" y="1238" width="180" height="130" rx="5" fill="#1a0a00" stroke="#ff8844" stroke-width="1.5"/>
  <text x="140" y="1256" text-anchor="middle" font-size="11" font-weight="bold" fill="#ff8844">Slow Scan Lap</text>
  <text x="140" y="1271" text-anchor="middle" font-size="10" fill="#aaa">Joystick drive OR</text>
  <text x="140" y="1285" text-anchor="middle" font-size="10" fill="#aaa">slow autonomous sweep</text>
  <text x="140" y="1299" text-anchor="middle" font-size="10" fill="#aaa">obstacles now present</text>
  <text x="140" y="1313" text-anchor="middle" font-size="10" fill="#888">record rosbag</text>
  <text x="140" y="1327" text-anchor="middle" font-size="9" fill="#555">~10–15 min total</text>
  <text x="140" y="1357" text-anchor="middle" font-size="9" fill="#555">RTK + LiDAR active</text>
  <line x1="230" y1="1303" x2="260" y2="1303" stroke="#ff8844" stroke-width="2" marker-end="url(#arrow-orange)"/>

  <rect x="260" y="1238" width="200" height="130" rx="5" fill="#1a0a00" stroke="#888" stroke-width="1"/>
  <text x="360" y="1256" text-anchor="middle" font-size="11" font-weight="bold" fill="#ff8844">Map Diff Engine</text>
  <text x="360" y="1273" text-anchor="middle" font-size="10" fill="#aaa">day-of scan</text>
  <text x="360" y="1287" text-anchor="middle" font-size="10" fill="#aaa">  MINUS</text>
  <text x="360" y="1301" text-anchor="middle" font-size="10" fill="#aaa">prior_map.pcd</text>
  <text x="360" y="1317" text-anchor="middle" font-size="10" fill="#ff8844">= obstacle point clusters</text>
  <text x="360" y="1331" text-anchor="middle" font-size="9" fill="#555">only new points = obstacles</text>
  <text x="360" y="1345" text-anchor="middle" font-size="9" fill="#555">clean automatic detection</text>
  <line x1="460" y1="1303" x2="490" y2="1303" stroke="#ff8844" stroke-width="2" marker-end="url(#arrow-orange)"/>

  <rect x="490" y="1238" width="210" height="130" rx="5" fill="#1a0a00" stroke="#888" stroke-width="1"/>
  <text x="595" y="1256" text-anchor="middle" font-size="11" font-weight="bold" fill="#ff8844">Zone Classifier</text>
  <text x="595" y="1273" text-anchor="middle" font-size="10" fill="#aaa">per-cluster analysis:</text>
  <text x="595" y="1289" text-anchor="middle" font-size="10" fill="#ff8844">CHIMES → PUSH_THROUGH</text>
  <text x="595" y="1305" text-anchor="middle" font-size="10" fill="#ffaa44">MOVABLE → NAV_AROUND</text>
  <text x="595" y="1321" text-anchor="middle" font-size="10" fill="#44ffaa">PASSAGE → PUSH_THROUGH</text>
  <text x="595" y="1337" text-anchor="middle" font-size="10" fill="#aaaaff">WALL → reroute</text>
  <text x="595" y="1353" text-anchor="middle" font-size="9" fill="#555">writes behavior per zone</text>
  <line x1="700" y1="1303" x2="730" y2="1303" stroke="#ff8844" stroke-width="2" marker-end="url(#arrow-orange)"/>

  <rect x="730" y="1238" width="620" height="130" rx="5" fill="#1a0a00" stroke="#ccff44" stroke-width="2"/>
  <text x="1040" y="1256" text-anchor="middle" font-size="11" font-weight="bold" fill="#ccff44">zone_config.yaml  →  uploaded to robot before heat</text>
  <text x="1040" y="1273" text-anchor="middle" font-size="10" fill="#888">zones:</text>
  <text x="1040" y="1289" text-anchor="middle" font-size="10" fill="#888">  - id: chimes    entry: [x,y]  exit: [x,y]    behavior: PUSH_THROUGH</text>
  <text x="1040" y="1305" text-anchor="middle" font-size="10" fill="#888">  - id: movable   entry: [x,y]  exit: [x,y]    behavior: NAVIGATE_AROUND</text>
  <text x="1040" y="1321" text-anchor="middle" font-size="10" fill="#888">  - id: tunnel    entry: [x,y]  exit: [x,y]    behavior: PUSH_THROUGH</text>
  <text x="1040" y="1337" text-anchor="middle" font-size="9" fill="#555">overrides zone_template.yaml — competition_day.yaml vs lab_test.yaml</text>
  <text x="1040" y="1351" text-anchor="middle" font-size="9" fill="#555">→ state machine loads this at startup → knows every zone behavior before race begins</text>

  <!-- Arrows from offline → online system -->
  <!-- Prior map artifacts → map_server + FAST-LIO2 init -->
  <line x1="1142" y1="1083" x2="195" y2="985" stroke="#ccff44" stroke-width="2" stroke-dasharray="6,3" marker-end="url(#arrow-lime)"/>
  <text x="700" y="1038" text-anchor="middle" font-size="9" fill="#ccff44">prior_map.pcd + waypoints.yaml + static_map → map_server &amp; FAST-LIO2 init</text>

  <!-- zone_config → Mission State Machine -->
  <line x1="1000" y1="1238" x2="999" y2="985" stroke="#ff8844" stroke-width="2" stroke-dasharray="6,3" marker-end="url(#arrow-orange)"/>
  <text x="1020" y="1205" text-anchor="middle" font-size="9" fill="#ff8844">zone_config.yaml</text>
  <text x="1020" y="1218" text-anchor="middle" font-size="9" fill="#ff8844">→ mission state machine</text>

  <!-- ═══ ONLINE ARROWS ═══ -->
  <!-- Physical → Drivers -->
  <line x1="109" y1="183" x2="109" y2="408" stroke="#4affff" stroke-width="1.5" stroke-dasharray="5,3" marker-end="url(#arrow)"/>
  <line x1="267" y1="183" x2="305" y2="408" stroke="#4a9eff" stroke-width="1.5" stroke-dasharray="5,3" marker-end="url(#arrow)"/>
  <line x1="418" y1="183" x2="470" y2="408" stroke="#aa88ff" stroke-width="1.5" stroke-dasharray="5,3" marker-end="url(#arrow)"/>
  <line x1="570" y1="183" x2="650" y2="408" stroke="#88ff44" stroke-width="1.5" stroke-dasharray="5,3" marker-end="url(#arrow)"/>
  <line x1="728" y1="183" x2="740" y2="244" stroke="#ff6644" stroke-width="2" marker-end="url(#arrow)"/>
  <line x1="748" y1="244" x2="736" y2="183" stroke="#ff6644" stroke-width="2" marker-end="url(#arrow)"/>
  <line x1="886" y1="183" x2="948" y2="244" stroke="#ff4444" stroke-width="2" marker-end="url(#arrow)"/>
  <line x1="1044" y1="183" x2="1000" y2="244" stroke="#ff4444" stroke-width="2" marker-end="url(#arrow)"/>
  <line x1="1247" y1="183" x2="1165" y2="408" stroke="#ccff44" stroke-width="1.5" stroke-dasharray="5,3" marker-end="url(#arrow)"/>
  <!-- STM32 ↔ micro-ROS agent -->
  <line x1="1225" y1="332" x2="900" y2="408" stroke="#4a9eff" stroke-width="1.5" stroke-dasharray="5,3" marker-end="url(#arrow)"/>
  <!-- E-Stop override → CAN Driver -->
  <line x1="965" y1="332" x2="790" y2="332" stroke="#ff4444" stroke-width="2" marker-end="url(#arrow)"/>
  <!-- Driver → Localization -->
  <line x1="135" y1="486" x2="135" y2="530" stroke="#4affff" stroke-width="1.5" marker-end="url(#arrow)"/>
  <line x1="502" y1="486" x2="185" y2="530" stroke="#aa88ff" stroke-width="1.5" marker-end="url(#arrow)"/>
  <line x1="516" y1="486" x2="335" y2="530" stroke="#aa88ff" stroke-width="1" stroke-dasharray="3,2" marker-end="url(#arrow)"/>
  <line x1="233" y1="570" x2="245" y2="570" stroke="#6a6aff" stroke-width="1.5" marker-end="url(#arrow)"/>
  <line x1="337" y1="630" x2="337" y2="645" stroke="#6a6aff" stroke-width="1.5" marker-end="url(#arrow)"/>
  <line x1="686" y1="486" x2="430" y2="658" stroke="#88ff44" stroke-width="1.5" marker-end="url(#arrow)"/>
  <line x1="318" y1="486" x2="510" y2="530" stroke="#4a9eff" stroke-width="1.5" marker-end="url(#arrow)"/>
  <line x1="445" y1="568" x2="430" y2="568" stroke="#ffaa44" stroke-width="1.5" marker-end="url(#arrow)"/>
  <!-- Driver → Perception -->
  <line x1="183" y1="486" x2="714" y2="590" stroke="#4affff" stroke-width="1.5" marker-end="url(#arrow)"/>
  <line x1="380" y1="486" x2="1022" y2="540" stroke="#4a9eff" stroke-width="1" stroke-dasharray="3,2" marker-end="url(#arrow)"/>
  <line x1="1009" y1="612" x2="1022" y2="612" stroke="#ff8844" stroke-width="1.5" marker-end="url(#arrow)"/>
  <!-- Localization → Nav2 -->
  <line x1="337" y1="725" x2="450" y2="810" stroke="#6a6aff" stroke-width="1.5" marker-end="url(#arrow)"/>
  <line x1="380" y1="682" x2="450" y2="830" stroke="#88ff44" stroke-width="1.5" marker-end="url(#arrow)"/>
  <line x1="343" y1="765" x2="450" y2="835" stroke="#cc66ff" stroke-width="1.5" marker-end="url(#arrow)"/>
  <line x1="1022" y1="690" x2="670" y2="860" stroke="#ff8844" stroke-width="1.5" marker-end="url(#arrow)"/>
  <!-- Mission flow -->
  <line x1="355" y1="486" x2="762" y2="765" stroke="#4a9eff" stroke-width="1.5" stroke-dasharray="4,3" marker-end="url(#arrow)"/>
  <line x1="868" y1="808" x2="879" y2="840" stroke="#ffcc44" stroke-width="1.5" marker-end="url(#arrow)"/>
  <line x1="861" y1="715" x2="965" y2="765" stroke="#ff8844" stroke-width="1.5" marker-end="url(#arrow)"/>
  <line x1="1119" y1="848" x2="1131" y2="878" stroke="#ffcc44" stroke-width="1.5" marker-end="url(#arrow)"/>
  <line x1="1200" y1="765" x2="1200" y2="715" stroke="#ff8844" stroke-width="1.5" stroke-dasharray="4,3" marker-end="url(#arrow)"/>
  <line x1="1131" y1="895" x2="670" y2="895" stroke="#cc66ff" stroke-width="1.5" marker-end="url(#arrow)"/>
  <!-- Nav2 → micro-ROS agent (cmd_vel) -->
  <line x1="513" y1="740" x2="513" y2="486" stroke="#ff6644" stroke-width="2" marker-end="url(#arrow)"/>
  <!-- joy_node → micro-ROS (manual override) -->
  <line x1="1050" y1="447" x2="969" y2="447" stroke="#ccff44" stroke-width="1.5" stroke-dasharray="4,3" marker-end="url(#arrow)"/>

  <!-- ═══ LEGEND ═══ -->
  <rect x="20" y="1400" width="1360" height="42" rx="4" fill="#111" stroke="#333" stroke-width="1"/>
  <line x1="40" y1="1421" x2="80" y2="1421" stroke="#aaa" stroke-width="1.5" stroke-dasharray="5,3" marker-end="url(#arrow)"/>
  <text x="84" y="1425" font-size="10" fill="#aaa">Sensor data</text>
  <line x1="175" y1="1421" x2="215" y2="1421" stroke="#ff6644" stroke-width="2" marker-end="url(#arrow)"/>
  <text x="219" y="1425" font-size="10" fill="#aaa">Command / actuation</text>
  <line x1="355" y1="1421" x2="395" y2="1421" stroke="#ff4444" stroke-width="2" marker-end="url(#arrow)"/>
  <text x="399" y="1425" font-size="10" fill="#ff4444">E-Stop (safety critical)</text>
  <line x1="530" y1="1421" x2="570" y2="1421" stroke="#ffcc44" stroke-width="1.5" marker-end="url(#arrow)"/>
  <text x="574" y="1425" font-size="10" fill="#aaa">Mission control flow</text>
  <line x1="700" y1="1421" x2="740" y2="1421" stroke="#6a6aff" stroke-width="1.5" marker-end="url(#arrow)"/>
  <text x="744" y="1425" font-size="10" fill="#aaa">Odometry / pose</text>
  <line x1="845" y1="1421" x2="885" y2="1421" stroke="#ccff44" stroke-width="2" stroke-dasharray="5,3" marker-end="url(#arrow)"/>
  <text x="889" y="1425" font-size="10" fill="#ccff44">Pre-competition offline / joystick</text>
  <text x="1090" y="1418" font-size="10" fill="#555">All computation onboard — no remote stack (Rule 2.4)</text>
  <text x="1090" y="1432" font-size="10" fill="#555">Joystick used only for mapping, disabled during race</text>
</svg>
